<svg version="1.1" id="Calque_1" xmlns="http://www.w3.org/2000/svg" xmlns:xlink="http://www.w3.org/1999/xlink" x="0px" y="0px" width="154px" height="48px" shape-rendering="geometricPrecision" viewBox="0 0 153.845 48.025" enable-background="new 0 0 153.845 48.025" xml:space="preserve">
    <path fill="#4E8BC9" d="M5.865,41.14c-1.475-0.227-2.82-0.85-4.038-1.87C0.608,38.25,0,36.918,0,35.275
	c0.226-0.85,0.608-1.516,1.147-1.998c0.538-0.481,1.133-0.835,1.785-1.063c0.651-0.226,1.317-0.368,1.998-0.425
	c0.68-0.056,1.331-0.113,1.955-0.17c1.416,0.114,2.79,0.242,4.122,0.383c1.331,0.142,2.648,0.327,3.953,0.552
	c1.02-1.36,1.913-2.805,2.678-4.335c0.765-1.53,1.458-3.088,2.083-4.675c0.85-2.436,1.7-4.788,2.55-7.055
	c0.85-2.266,1.615-4.278,2.295-6.035c0.68-1.756,1.246-3.159,1.7-4.208c0.453-1.048,0.68-1.601,0.68-1.658
	c0.226-0.566,0.453-1.161,0.68-1.785c0.34-1.076,0.566-2.011,0.68-2.805c0.17,0.057,0.51,0.185,1.02,0.382
	c0.51,0.199,1.033,0.482,1.572,0.85c0.538,0.369,1.033,0.808,1.488,1.317c0.453,0.51,0.68,1.134,0.68,1.87
	c0,0.227-0.015,0.482-0.042,0.765c-0.029,0.284-0.1,0.567-0.212,0.85c-0.85,1.87-1.715,3.897-2.593,6.078
	c-0.879,2.182-1.827,4.449-2.847,6.8c-1.02,2.353-2.154,4.76-3.4,7.225c-1.247,2.465-2.665,4.888-4.25,7.268
	c3.23,0.68,6.19,1.432,8.882,2.252c2.691,0.821,5.015,1.601,6.97,2.337c1.955,0.736,3.527,1.36,4.717,1.87
	c1.191,0.51,1.898,0.765,2.125,0.765l0.086-0.085l0.17,0.17c0.17,0.17,0.256,0.283,0.256,0.34c0,0.17-0.072,0.283-0.213,0.34
	c-0.143,0.056-0.27,0.085-0.383,0.085c-0.34,0-1.219-0.227-2.635-0.68c-1.418-0.454-3.203-1.007-5.355-1.657
	c-2.154-0.652-4.604-1.318-7.353-1.998c-2.749-0.68-5.652-1.275-8.712-1.785c-1.417,1.586-3.06,2.96-4.93,4.123
	c-1.87,1.161-3.882,1.742-6.035,1.742c-0.284,0-0.524,0-0.723,0C6.388,41.225,6.148,41.196,5.865,41.14z M13.175,34.68
	c-0.51-0.113-1.063-0.183-1.657-0.212c-0.595-0.028-1.205-0.042-1.828-0.042c-1.7,0-3.245,0.127-4.632,0.382
	c-1.389,0.255-2.083,0.582-2.083,0.978c0,0.057,0.113,0.185,0.34,0.383c0.226,0.199,0.51,0.396,0.85,0.595
	c0.34,0.198,0.736,0.383,1.19,0.553c0.453,0.17,0.906,0.255,1.36,0.255c1.02,0,2.11-0.255,3.272-0.765
	C11.148,36.295,12.211,35.587,13.175,34.68z" />
    <path fill="#EDEDED" d="M49.213,26.605c0.227,0.057,0.34,0.17,0.34,0.34c0,0.057-0.227,0.61-0.68,1.658
	c-0.453,1.049-1.219,2.182-2.295,3.4c-1.076,1.219-2.494,2.337-4.25,3.357s-3.91,1.53-6.459,1.53c-1.53,0-2.792-0.369-3.783-1.105
	c-0.992-0.736-1.757-1.615-2.295-2.635c-0.538-1.02-0.92-2.068-1.147-3.145c-0.226-1.076-0.34-1.955-0.34-2.635
	c0-1.7,0.327-3.357,0.978-4.972c0.651-1.615,1.473-3.06,2.465-4.335c0.991-1.275,2.11-2.295,3.357-3.06
	c1.246-0.765,2.465-1.147,3.654-1.147c1.645,0,2.904,0.212,3.783,0.637c0.879,0.425,1.529,0.922,1.955,1.488
	c0.426,0.567,0.68,1.134,0.766,1.7c0.084,0.567,0.127,0.992,0.127,1.275c0,1.587-0.313,2.89-0.936,3.91s-1.402,1.828-2.338,2.422
	c-0.934,0.595-1.941,1.02-3.016,1.275c-1.078,0.255-2.07,0.382-2.977,0.382c-0.963,0-1.756-0.098-2.379-0.297
	c-0.624-0.198-1.105-0.438-1.445-0.723c-0.284,1.02-0.425,1.899-0.425,2.635c0,0.68,0.085,1.347,0.255,1.997
	c0.17,0.652,0.468,1.233,0.893,1.743c0.425,0.51,0.991,0.922,1.7,1.232C35.43,33.844,36.322,34,37.398,34
	c1.813,0,3.428-0.354,4.846-1.063c1.416-0.708,2.605-1.516,3.57-2.423c0.963-0.906,1.686-1.742,2.166-2.507
	c0.482-0.765,0.723-1.203,0.723-1.317v-0.085h0.086l0.17-0.085c0.055,0,0.098,0.015,0.127,0.042
	C49.113,26.592,49.156,26.605,49.213,26.605z M34.339,22.1c-0.567,0.625-1.077,1.445-1.53,2.465c1.19,0.284,2.266,0.27,3.23-0.042
	c0.963-0.311,1.756-0.765,2.379-1.36c0.623-0.595,1.076-1.232,1.361-1.912c0.283-0.68,0.367-1.19,0.254-1.53
	c0-0.17-0.652-0.255-1.955-0.255c-0.453,0-1.049,0.242-1.785,0.723C35.557,20.669,34.904,21.307,34.339,22.1z" />
    <path fill="#EDEDED" d="M69.188,15.47c0,0.114,0.014,0.212,0.042,0.298c0.028,0.085,0.043,0.185,0.043,0.297
	c0,0.17,0.014,0.27,0.042,0.297c0.028,0.029,0.043,0.057,0.043,0.085c0,0.029-0.029,0.1-0.085,0.212
	c-0.058,0.114-0.143,0.34-0.255,0.68h-0.085c-1.36,2.89-2.834,6.064-4.42,9.52c-1.587,3.457-2.976,6.942-4.165,10.455
	c1.075,0.056,2.181,0.141,3.314,0.255c1.133,0.113,2.153,0.325,3.061,0.638c0.905,0.311,1.643,0.765,2.21,1.36
	c0.565,0.595,0.85,1.373,0.85,2.337c0,0.736-0.185,1.473-0.553,2.21c-0.369,0.736-0.85,1.388-1.444,1.955
	c-0.596,0.566-1.275,1.033-2.04,1.402c-0.766,0.368-1.545,0.553-2.338,0.553c-1.474,0-2.862-0.567-4.165-1.7
	c-1.304-1.134-2.097-2.607-2.38-4.42c-1.02,0.113-2.21,0.269-3.57,0.468c-1.359,0.198-2.664,0.41-3.909,0.637
	c-1.247,0.226-2.295,0.481-3.146,0.765c-0.85,0.283-1.274,0.538-1.274,0.765c-0.283-1.19-0.326-2.182-0.128-2.975
	c0.199-0.794,0.497-1.445,0.893-1.955c0.397-0.51,0.822-0.879,1.274-1.105c0.455-0.227,0.795-0.369,1.021-0.425
	c1.36-0.228,2.775-0.383,4.25-0.468c1.473-0.085,3.116-0.185,4.93-0.297c0.056-0.284,0.113-0.525,0.17-0.723
	c0.056-0.198,0.113-0.438,0.17-0.723c-0.51,0.285-1.049,0.51-1.614,0.68c-0.567,0.17-1.275,0.283-2.125,0.34
	c-1.36,0.056-2.465-0.227-3.315-0.85c-0.85-0.623-1.517-1.374-1.997-2.253c-0.481-0.877-0.821-1.798-1.021-2.762
	c-0.197-0.963-0.325-1.785-0.382-2.465c-0.057-1.53,0.199-3.159,0.765-4.888c0.565-1.728,1.388-3.315,2.465-4.76
	c1.076-1.445,2.365-2.648,3.867-3.612c1.501-0.963,3.158-1.501,4.973-1.615c1.133-0.056,2.096,0.042,2.891,0.297
	c0.792,0.255,1.5,0.524,2.125,0.808c0.282-0.453,0.552-0.906,0.807-1.36c0.256-0.453,0.411-0.935,0.468-1.445
	c0.623,0.34,1.19,0.68,1.7,1.02c0.453,0.284,0.878,0.624,1.275,1.02c0.396,0.397,0.65,0.822,0.765,1.275V15.47z M58.054,33.49
	c0.623-2.55,1.33-4.986,2.125-7.31c0.793-2.323,1.5-4.391,2.125-6.205c-1.077-0.85-2.324-1.246-3.74-1.19
	c-1.021,0.057-2.04,0.397-3.061,1.02c-1.02,0.625-1.941,1.445-2.762,2.465c-0.822,1.02-1.475,2.167-1.955,3.442
	c-0.482,1.275-0.695,2.537-0.638,3.782c0,0.625,0.07,1.262,0.213,1.913c0.141,0.652,0.382,1.247,0.722,1.785
	c0.341,0.539,0.808,0.964,1.403,1.275c0.595,0.312,1.373,0.439,2.337,0.382c0.623-0.056,1.317-0.226,2.083-0.51
	C57.671,34.057,58.054,33.774,58.054,33.49z M63.748,40.97c-0.624,0.056-1.262,0.113-1.912,0.17
	c-0.652,0.056-1.29,0.141-1.912,0.255h0.085h-0.17c-0.114,0-0.199,0.013-0.256,0.042c-0.057,0.028-0.142,0.042-0.255,0.042
	l-1.359,0.255c0.17,0.056,0.367,0.085,0.595,0.085c0.17,0.056,0.325,0.085,0.468,0.085c0.141,0,0.268,0.028,0.382,0.085
	c0.283,1.133,0.836,2.125,1.658,2.975c0.82,0.85,1.77,1.275,2.847,1.275c0.736,0,1.573-0.312,2.508-0.935
	c0.936-0.624,1.402-1.587,1.402-2.89c0-0.455-0.185-0.822-0.552-1.105c-0.37-0.285-1.035-0.425-1.998-0.425
	c-0.227,0-0.468,0-0.723,0S64.031,40.913,63.748,40.97z" />
    <path fill="#EDEDED" d="M69.867,34.935c-0.85-1.076-1.274-2.578-1.274-4.505c0-1.7,0.255-3.428,0.765-5.185
	c0.51-1.755,1.076-3.4,1.7-4.93c0.623-1.53,1.203-2.89,1.742-4.08c0.538-1.19,0.863-2.068,0.978-2.635
	c-0.057,0.114,0.128,0.255,0.553,0.425s0.893,0.425,1.402,0.765c0.51,0.34,0.991,0.779,1.445,1.317
	c0.453,0.539,0.68,1.232,0.68,2.083c0,0.624-0.284,1.36-0.85,2.21h-0.085c-0.965,1.814-1.942,3.74-2.933,5.78
	c-0.992,2.04-1.487,3.967-1.487,5.78c0,0.624,0.085,1.134,0.255,1.53c0.17,0.397,0.565,0.595,1.189,0.595
	c0.963,0,2.153-0.581,3.57-1.743c1.416-1.161,2.69-3.045,3.825-5.652l0.17-0.085c0.226,0,0.425,0.085,0.595,0.255l0.17,0.17
	c0-0.056-0.127,0.412-0.382,1.402c-0.256,0.992-0.723,2.097-1.403,3.315c-0.68,1.219-1.602,2.337-2.762,3.357
	c-1.162,1.02-2.622,1.53-4.378,1.53c-0.567,0-1.162-0.114-1.785-0.34C70.943,36.069,70.378,35.615,69.867,34.935z M81.088,11.05
	c-0.284,0.624-0.71,1.134-1.275,1.53c-0.567,0.397-1.162,0.595-1.785,0.595c-0.794,0-1.359-0.283-1.7-0.85
	c-0.34-0.565-0.51-1.218-0.51-1.955c0-0.906,0.269-1.643,0.808-2.21c0.538-0.565,1.203-0.85,1.998-0.85
	c0.792,0,1.444,0.255,1.954,0.765c0.511,0.51,0.766,1.134,0.766,1.87C81.343,10.342,81.258,10.71,81.088,11.05z" />
    <path fill="#4E8BC9" d="M85.081,15.555c-1.021-0.793-1.715-1.572-2.083-2.337c-0.369-0.765-0.552-1.458-0.552-2.083
	c0-0.623,0.085-1.161,0.255-1.615c0.112-0.226,0.226-0.453,0.34-0.68c0.17-0.226,0.793-0.808,1.87-1.743
	c1.075-0.935,2.62-1.926,4.632-2.975c2.011-1.048,4.434-1.983,7.268-2.805c2.833-0.821,6.063-1.232,9.69-1.232
	c0.85,0,2.025,0.085,3.527,0.255c1.501,0.17,3.003,0.539,4.505,1.105c1.501,0.567,2.876,1.36,4.123,2.38
	c1.245,1.02,2.04,2.409,2.38,4.165c0,2.55-0.582,4.79-1.743,6.715c-1.162,1.927-2.366,3.712-3.612,5.355
	c-2.04,2.72-4.35,4.689-6.928,5.907c-2.579,1.219-5.057,1.828-7.438,1.828c-1.304,0-2.521-0.184-3.654-0.553
	c-1.135-0.368-2.125-0.75-2.976-1.147c-0.68,1.645-1.347,3.259-1.997,4.845c-0.652,1.587-1.177,2.862-1.572,3.825
	c0,0.057-0.17,0.582-0.511,1.573c-0.34,0.991-0.51,2.365-0.51,4.123c-0.114,0-0.354-0.057-0.723-0.17
	c-0.369-0.114-0.765-0.298-1.189-0.553s-0.795-0.624-1.105-1.105c-0.312-0.482-0.468-1.12-0.468-1.913
	c0-0.453,0.028-0.963,0.086-1.53c0.056-0.566,0.197-1.246,0.425-2.04h0.085c0.793-3.456,1.756-6.771,2.89-9.945
	c-0.057-0.056-0.142-0.099-0.255-0.128c-0.114-0.028-0.17-0.155-0.17-0.382c0-0.113,0.056-0.212,0.17-0.297
	c0.113-0.085,0.226-0.127,0.34-0.127c0.056,0,0.099,0.015,0.128,0.042c0.027,0.029,0.07,0.042,0.127,0.042
	c0.681-1.87,1.36-3.541,2.04-5.015c0.681-1.473,1.161-2.748,1.445-3.825c0.226-0.565,0.453-1.161,0.68-1.785
	c0.34-1.076,0.566-2.011,0.681-2.805c0.112,0.057,0.425,0.185,0.935,0.382c0.51,0.199,1.048,0.468,1.615,0.808
	c0.565,0.34,1.075,0.78,1.529,1.317c0.453,0.54,0.681,1.148,0.681,1.828c0,0.51-0.029,0.822-0.085,0.935
	c-0.058,0.114-0.228,0.454-0.51,1.02c-0.285,0.567-0.752,1.559-1.403,2.975c-0.651,1.417-1.572,3.627-2.762,6.63
	c0.792,0.284,1.67,0.524,2.635,0.723c0.963,0.199,2.011,0.297,3.145,0.297c1.586,0,3.188-0.382,4.803-1.147s3.146-1.813,4.59-3.145
	c1.445-1.331,2.748-2.89,3.91-4.675c1.161-1.785,2.083-3.726,2.763-5.823c0.226-0.68,0.34-1.36,0.34-2.04
	c0-0.736-0.34-1.388-1.02-1.955c-0.681-0.565-1.518-1.02-2.508-1.36c-0.992-0.34-2.055-0.595-3.188-0.765
	c-1.135-0.17-2.154-0.255-3.061-0.255c-1.474,0-2.961,0.142-4.462,0.425c-1.502,0.285-2.877,0.652-4.123,1.105
	c-2.834,1.134-5.143,2.267-6.927,3.4c-1.785,1.134-3.188,2.14-4.208,3.018c-1.02,0.879-1.729,1.602-2.125,2.167
	C85.448,15.357,85.193,15.612,85.081,15.555z" />
    <path fill="#EDEDED" d="M119.59,34.935c-0.85-1.076-1.274-2.578-1.274-4.505c0-1.7,0.255-3.428,0.765-5.185
	c0.51-1.755,1.076-3.4,1.7-4.93c0.623-1.53,1.203-2.89,1.742-4.08c0.538-1.19,0.863-2.068,0.978-2.635
	c-0.057,0.114,0.128,0.255,0.553,0.425s0.893,0.425,1.402,0.765c0.51,0.34,0.991,0.779,1.445,1.317
	c0.453,0.539,0.68,1.232,0.68,2.083c0,0.624-0.284,1.36-0.85,2.21h-0.085c-0.965,1.814-1.942,3.74-2.933,5.78
	c-0.992,2.04-1.487,3.967-1.487,5.78c0,0.624,0.085,1.134,0.255,1.53c0.17,0.397,0.565,0.595,1.189,0.595
	c0.963,0,2.153-0.581,3.57-1.743c1.416-1.161,2.69-3.045,3.825-5.652l0.17-0.085c0.226,0,0.425,0.085,0.595,0.255l0.17,0.17
	c0-0.056-0.127,0.412-0.382,1.402c-0.256,0.992-0.723,2.097-1.403,3.315c-0.68,1.219-1.602,2.337-2.762,3.357
	c-1.162,1.02-2.622,1.53-4.378,1.53c-0.567,0-1.162-0.114-1.785-0.34C120.666,36.069,120.101,35.615,119.59,34.935z M130.811,11.05
	c-0.284,0.624-0.71,1.134-1.275,1.53c-0.567,0.397-1.162,0.595-1.785,0.595c-0.794,0-1.359-0.283-1.7-0.85
	c-0.34-0.565-0.51-1.218-0.51-1.955c0-0.906,0.269-1.643,0.808-2.21c0.538-0.565,1.203-0.85,1.998-0.85
	c0.792,0,1.444,0.255,1.954,0.765c0.511,0.51,0.766,1.134,0.766,1.87C131.065,10.342,130.98,10.71,130.811,11.05z" />
    <path fill="#EDEDED" d="M153.59,26.69c0.17,0.114,0.255,0.227,0.255,0.34c0,0.227-0.27,0.865-0.808,1.913
	c-0.539,1.049-1.29,2.252-2.253,3.612c-0.227,0.284-0.524,0.667-0.893,1.147c-0.369,0.482-0.808,0.95-1.317,1.403
	c-0.51,0.454-1.104,0.864-1.785,1.232c-0.68,0.368-1.474,0.552-2.38,0.552c-0.964,0-1.827-0.227-2.592-0.68
	c-0.766-0.453-1.445-1.048-2.04-1.785c-0.596-0.736-1.105-1.543-1.53-2.422c-0.425-0.878-0.779-1.713-1.063-2.508
	c-1.87,1.927-3.627,3.685-5.271,5.27c-1.643,1.587-3.06,2.96-4.25,4.123c-1.189,1.161-2.11,2.053-2.762,2.678
	c-0.651,0.623-0.921,0.935-0.808,0.935c-0.113,0-0.226-0.042-0.34-0.127c-0.113-0.085-0.171-0.185-0.171-0.298
	c0-0.17,0.397-0.779,1.19-1.827c0.794-1.049,1.785-2.338,2.975-3.868c1.19-1.53,2.508-3.201,3.953-5.015
	c1.444-1.813,2.848-3.57,4.207-5.27c-0.34-1.133-0.624-2.21-0.85-3.23c-0.228-1.02-0.425-1.955-0.595-2.805
	c-0.965,1.53-2.083,2.692-3.357,3.485c-1.275,0.794-2.338,1.19-3.188,1.19c-0.566,0-0.863-0.028-0.893-0.085
	c-0.028-0.056-0.043-0.141-0.043-0.255c0-0.056,0.029-0.113,0.085-0.17h0.085h0.17c0.284,0,0.865-0.198,1.743-0.595
	c0.879-0.396,1.714-1.161,2.507-2.295c0.851-1.076,1.431-2.138,1.743-3.188c0.311-1.048,0.522-1.798,0.637-2.252
	c0-0.113-0.015-0.184-0.042-0.213c-0.029-0.028-0.043-0.07-0.043-0.127c0-0.056,0.227-0.17,0.681-0.34
	c0.452-0.17,0.963-0.34,1.529-0.51c0.566-0.17,1.133-0.326,1.7-0.468c0.566-0.141,0.991-0.212,1.275-0.212
	c0.112,0,0.197,0.297,0.255,0.893c0.056,0.595,0.112,1.304,0.17,2.125c0.056,0.822,0.085,1.644,0.085,2.465
	c0,0.822,0.028,1.459,0.085,1.913c1.133-1.36,2.096-2.536,2.89-3.527c0.793-0.991,1.331-1.658,1.615-1.998
	c0.453-0.51,0.878-0.991,1.275-1.445c0.34-0.396,0.665-0.807,0.978-1.232c0.311-0.425,0.523-0.778,0.638-1.063
	c0.452,0.397,0.85,0.794,1.189,1.19c0.283,0.34,0.565,0.709,0.85,1.105c0.283,0.397,0.426,0.822,0.426,1.275
	c0.056,0.228,0.027,0.482-0.085,0.765c-0.17,0.567-0.625,1.247-1.36,2.04v0.085l-7.735,7.735c0.113,0.625,0.283,1.36,0.511,2.21
	c0.226,0.85,0.51,1.687,0.85,2.507c0.34,0.822,0.735,1.517,1.19,2.083c0.452,0.567,0.99,0.85,1.614,0.85
	c0.681,0,1.346-0.156,1.998-0.468c0.65-0.311,1.245-0.708,1.785-1.19c0.537-0.481,1.02-0.963,1.444-1.445
	c0.425-0.481,0.778-0.893,1.063-1.232c1.076-1.303,1.714-2.139,1.913-2.508c0.197-0.368,0.382-0.552,0.552-0.552
	C153.362,26.605,153.476,26.634,153.59,26.69z" />
</svg>
