<?xml version="1.0" standalone="no"?>
<!DOCTYPE svg PUBLIC "-//W3C//DTD SVG 1.1//EN" "http://www.w3.org/Graphics/SVG/1.1/DTD/svg11.dtd">
<svg xmlns="http://www.w3.org/2000/svg">
<metadata>Copyright (C) 2015 by original authors @ fontello.com</metadata>
<defs>
<font id="fontello" horiz-adv-x="1000" >
<font-face font-family="fontello" font-weight="400" font-stretch="normal" units-per-em="1000" ascent="850" descent="-150" />
<missing-glyph horiz-adv-x="1000" />
<glyph glyph-name="cc" unicode="&#xe800;" d="m399 793q168 0 286-117 56-57 86-129t29-154q0-82-29-154t-85-127q-59-58-133-88t-154-31-151 30-130 88-88 130-30 152q0 79 30 152t89 131q114 117 280 117z m2-72q-137 0-231-96-47-48-72-107t-26-125q0-64 26-124t72-106 106-72 125-25q64 0 124 25t109 73q94 91 94 229 0 66-24 126t-71 105q-97 97-232 97z m-5-262l-54-28q-8 18-21 25t-23 8q-54 0-54-71 0-32 14-52t40-19q35 0 49 34l49-25q-15-29-43-46t-62-16q-53 0-86 32t-33 92q0 57 33 91t84 33q75 0 107-58z m230 0l-52-28q-9 18-21 25t-24 8q-54 0-54-71 0-32 14-52t40-19q35 0 49 34l50-25q-17-29-44-46t-61-16q-54 0-87 32t-32 92q0 57 33 91t84 33q74 0 105-58z" horiz-adv-x="800.7" />
<glyph glyph-name="by" unicode="&#xe801;" d="m508 492v-163h-46v-195h-124v195h-46v163q0 11 8 18t18 8h164q10 0 18-8t8-18z m-164 103q0 56 56 56t56-56q0-56-56-56t-56 56z m55 198q169 0 285-116 116-116 116-284 0-169-114-281-122-119-287-119-162 0-281 118-118 118-118 282t118 284q116 116 281 116z m2-72q-137 0-231-96-98-100-98-232 0-133 97-230t232-97q133 0 233 98 94 90 94 229 0 136-96 232t-231 96z" horiz-adv-x="800" />
<glyph glyph-name="nd" unicode="&#xe802;" d="m399 792q168 0 285-116 116-116 116-284t-114-281q-121-119-287-119-162 0-281 118-118 118-118 282 0 164 118 284 116 116 281 116z m2-72q-137 0-231-96-98-100-98-232 0-133 97-230 97-97 232-97 133 0 233 98 94 91 94 229 0 137-96 232-95 96-231 96z m150-234v-68h-290v68h290z m0-128v-69h-290v69h290z" horiz-adv-x="800" />
<glyph glyph-name="nc" unicode="&#xe803;" d="m399 794q169 0 285-116 116-116 116-284t-114-281q-122-119-287-119-163 0-281 118-118 118-118 282 0 164 118 284 116 116 281 116z m-309-293q-18-49-18-107 0-133 97-230 98-97 232-97 135 0 233 98 35 34 55 70l-151 67q-8-38-38-62t-72-27v-62h-47v62q-66 1-121 48l55 55q39-36 89-36 21 0 36 9t14 31q0 15-10 24l-39 17-47 21-64 28z m311 221q-137 0-231-96-24-24-44-54l153-68q10 31 37 50t65 21v61h47v-61q55-3 100-37l-52-54q-34 24-69 24-18 0-33-7t-15-25q0-5 4-10l51-22 35-16 64-29 205-91q10 42 10 86 0 137-96 232-95 96-231 96z" horiz-adv-x="800" />
<glyph glyph-name="rocket" unicode="&#xe804;" d="m968 849c-1 0-75-3-173-35-98-32-221-93-318-211-46-56-87-105-123-149l-113-1c-16-1-31-5-45-11-14-7-26-15-37-27l-48-58c-9-9-14-21-14-34 0-12 4-23 12-31 7-9 17-14 27-16l56-15c-6-7-9-10-9-10l-8-10 2-12c0-1 1-9 4-23l-29-50c-7-10-5-24 4-33l112-112c5-5 12-8 19-8 4 0 9 1 13 3l53 28c14-4 23-5 24-5l12-2 9 8c0 0 4 3 11 9l14-56c3-10 8-20 17-27 8-8 19-12 30-12 0 0 0 0 0 0 14 0 26 5 35 13l58 49c11 11 20 23 27 37 6 14 10 29 11 45l1 113c44 36 93 77 149 123 118 97 179 220 211 318 32 98 34 172 35 173l1 30-30-1z m-811-522l44 52c3 3 11 9 19 13 8 4 17 6 21 6l67 0c-17-20-33-39-47-56-11-12-21-24-29-35l-75 20z m389-234c0-4-2-13-6-21-4-9-9-16-13-19l-52-44-19 74c23 20 54 46 91 77l-1-67z m363 566c-30-90-87-201-192-287-189-155-310-257-344-286-4 1-9 2-14 4l0 0c-3 0-7 2-10 3-20 8-45 21-66 41-22 22-35 47-42 68-3 9-6 17-7 23 29 34 131 154 286 343 88 107 201 164 292 194 45 15 86 23 114 27 5 1 9 1 13 2-4-30-12-77-30-132z m-234-24c-60 0-108-48-108-108 0-60 48-109 108-109 60 0 108 49 108 109s-48 108-108 108z m38-146c-10-9-23-15-38-15-15 0-28 6-37 15-10 10-16 23-16 38 0 15 6 28 16 37 10 10 23 16 37 16 15 0 28-6 38-16s15-23 15-37-6-28-15-38z m-508-485c-6-23-17-40-34-53-25-21-61-33-91-38-8-2-15-3-22-4 2 15 5 33 11 51 7 20 17 41 30 57 14 17 31 30 54 37l-15 52c-35-10-63-31-82-55-29-36-42-79-49-112-7-34-7-58-7-60l0-27 28 0c1 0 47 0 99 16 26 8 54 20 79 40 24 19 44 47 53 83l-54 13 0 0z" horiz-adv-x="1000" />
<glyph glyph-name="forum" unicode="&#xe805;" d="m148 745c22 0 40-18 40-39l0-82c0-21-18-39-40-39l-109 0c-21 0-39 18-39 39l0 82c0 21 18 39 39 39l109 0m-19-59l-70 0 0-42 70 0 0 42 0 0z m832 59c21 0 39-18 39-39l0-82c0-21-18-39-39-39l-656 0c-22 0-39 18-39 39l0 82c0 21 17 39 39 39l656 0m-20-59l-617 0 0-42 617 0 0 42 0 0z m-793-234c22 0 40-18 40-39l0-82c0-21-18-39-40-39l-109 0c-21 0-39 18-39 39l0 82c0 21 18 39 39 39l109 0m-19-59l-70 0 0-42 70 0 0 42 0 0z m832 59c21 0 39-18 39-39l0-82c0-21-18-39-39-39l-656 0c-22 0-39 18-39 39l0 82c0 21 17 39 39 39l656 0m-20-59l-617 0 0-42 617 0 0 42 0 0z m-793-234c22 0 40-18 40-39l0-81c0-22-18-40-40-40l-109 0c-21 0-39 18-39 40l0 81c0 21 18 39 39 39l109 0m-19-59l-70 0 0-42 70 0 0 42 0 0z m832 59c21 0 39-18 39-39l0-81c0-22-18-40-39-40l-656 0c-22 0-39 18-39 40l0 81c0 21 17 39 39 39l656 0m-20-59l-617 0 0-42 617 0 0 42 0 0z" horiz-adv-x="1000" />
<glyph glyph-name="edit" unicode="&#xe806;" d="m496 189l64 65-85 85-64-65v-31h53v-54h32z m245 402q-9 9-18 0l-196-196q-9-9 0-18t18 0l196 196q9 9 0 18z m45-331v-106q0-67-47-114t-114-47h-464q-67 0-114 47t-47 114v464q0 66 47 113t114 48h464q35 0 65-14 9-4 10-13 2-10-5-16l-27-28q-8-8-18-4-13 3-25 3h-464q-37 0-63-26t-27-63v-464q0-37 27-63t63-27h464q37 0 63 27t26 63v70q0 7 5 12l36 36q8 8 20 4t11-16z m-54 411l161-160-375-375h-161v160z m248-73l-51-52-161 161 51 51q16 16 38 16t38-16l85-84q16-16 16-38t-16-38z" horiz-adv-x="1000" />
<glyph glyph-name="users" unicode="&#xe807;" d="m795-34c0 0 0 0 0 0-5 27-14 51-22 69l178 0c26 0 41 4 44 13 2 8-4 35-5 38-9 34-26 62-51 82-52 43-132 48-179 98 2 21-5 35-2 51 5 24 35 44 35 79 27 15 44 72 23 106 21 75 21 158-25 197-10 9-27 13-42 21-15 8-27 19-37 23-54 21-131 5-168-25-13 12-27 10-39 16-15 7-24 23-42 29-112 34-213-19-244-91-20-46-19-94-11-147 2-13 10-30 9-44-1-13-13-23-13-41-2-39 16-66 38-85 4-16 8-29 14-42 8-19 25-34 29-49 4-17 3-53-2-67-13-36-96-57-137-75-70-32-126-69-141-155l0-10c0-13 4-30 25-30l738 0c19 0 30 14 27 34 0 2 0 3 0 5z m-739 9c5 22 15 40 30 54 23 25 59 41 95 56 37 14 75 28 103 47 19 13 31 25 38 41 7 17 10 37 11 66 1 7 1 16 1 25 0 8 0 17-3 24-3 6-7 10-11 14-5 4-9 7-11 10-14 22-19 45-24 79l-1 5-5 0c0 0 0 0 0 0-9 0-15 4-19 10-5 7-7 16-7 25 0 13 5 25 13 29l4 2-1 5c-8 38-19 81-19 122 0 29 6 56 20 80 21 33 69 52 116 55 4 1 8 1 13 1 16 0 32-3 45-8 13-5 23-12 29-23l1-3 4 0c29 0 46-12 58-31 12-20 17-47 17-75 0-41-10-85-21-116l0 0 0-1c0 0 0-1 0-2 0-4 1-7 3-10 3-3 7-5 9-8 3-2 4-4 5-8 0-3 1-5 1-7 0-9-3-18-8-24-4-7-10-11-19-11 0 0-1 0-1 0l-5 0-1-5c-5-45-20-79-45-103l-1-2 0-2c0-7 0-13 0-19 0-18-1-36-1-52 0-10 1-20 3-29 6-22 23-39 43-52 20-14 43-25 63-33 38-16 76-28 106-47 28-18 50-41 60-79l-688 0 0 0z m684 106c-6 1-15 6-24 13-9 7-19 14-29 19-28 15-60 26-90 38-29 13-55 27-73 48l0 0c0 18-4 35-3 49 0 4 0 9 1 13 1 6 5 12 10 19 5 7 11 14 15 22 8 17 12 32 17 49 11 8 20 20 27 34 6 15 11 33 11 50 0 16-4 31-11 45 9 30 15 70 15 108 0 37-6 73-23 98 15 11 44 19 70 18 15 0 29-2 41-6 11-4 20-11 25-19l1-3 3 0c23-1 37-11 46-25s13-36 13-59c0-35-9-74-19-100l-2-5 5-2c8-4 12-13 12-23 0-7-2-14-6-19-3-5-9-8-16-9l-5 0 0-5c-3-38-15-65-37-83l-2-1 0-2c-2-15-3-28-3-40 0-36 10-61 27-80 18-18 42-29 70-41 32-13 62-24 87-40 22-14 39-33 49-61l-99 0c-23 0-48-3-70-3-12 0-23 1-33 3z" horiz-adv-x="1000" />
<glyph glyph-name="key" unicode="&#xe808;" d="m688 850c172 0 312-140 312-312s-140-313-312-313c-38 0-74 7-107 19l-81-81-62 0 0-63-63 0 0-62-62-63-63 0 0-63-62-62-126 1-62 61 0 126 394 393c-13 33-19 69-19 107 0 172 140 312 313 312m0-59c-68 0-132-26-180-74-48-48-74-112-74-179 0-30 5-59 15-87l12-35-26-26-376-377 0-76 27-27 77-1 28 28 0 38 0 59 59 0 38 0 28 28 0 38 0 59 59 0 4 0 0 4 0 58 59 0 38 0 64 64 26 26 35-12c28-10 57-15 87-15 67 0 131 26 179 74 48 48 74 112 74 180s-26 131-74 179c-48 48-112 74-179 74l0 0z m-147-154l21 20c31 32 75 51 123 51l0 0c96 0 173-77 173-173l0 0c0-48-19-92-51-123l0 0-20-21-246 246 0 0z m246-204l20 20-20-20 0 0z m-3 44c10 17 16 37 16 58l0 0c0 31-13 60-34 81l0 0c-21 21-49 33-81 33l0 0c-21 0-41-5-58-15l0 0 157-157 0 0z" horiz-adv-x="1000" />
<glyph glyph-name="fire" unicode="&#xe809;" d="m342 850l0 0c303-115 541-357 290-530-252-172 0-397 0-397s0 0 0 0c0 0-1 0-1 0-302 115-541 357-289 530 252 172 0 397 0 397 0 0 0 0 0 0m160-145c8-30 12-59 10-88-5-82-51-154-137-213-32-22-55-45-68-69-10-19-14-39-12-60 6-47 44-102 106-155 21-18 45-35 70-52-8 30-11 60-10 88 6 83 52 154 137 213 32 22 55 45 68 69 11 19 15 39 12 61-6 47-43 102-106 155-21 17-45 35-70 51l0 0z m-473-852c-16 0-29 13-29 29l0 0c0 16 13 29 29 29l0 0 938 0c16 0 29-13 29-29l0 0c0-16-13-29-29-29l0 0-938 0 0 0z" horiz-adv-x="1000" />
<glyph glyph-name="letter" unicode="&#xe80a;" d="m961 709l-922 0c-21 0-39-17-39-39l0-640c0-22 18-39 39-39l922 0c21 0 39 17 39 39l0 640c0 22-18 39-39 39z m-20-545l-236 189 236 201 0-390z m0 487l0-20-430-366c-2-2-6-3-11-3s-9 1-11 3l-430 366 0 20 882 0z m-646-298l-236-189 0 390 236-201z m-236-304l0 40 282 225 110-94c14-12 32-17 49-17 17 0 34 5 49 17l110 94 282-225 0-40-882 0z" horiz-adv-x="1000" />
<glyph glyph-name="pad" unicode="&#xe80b;" d="m941 186c-24 76-61 153-104 214-22 30-45 56-69 75-12 10-25 18-38 24-14 6-28 9-43 9-22 0-42-4-59-11-27-11-48-24-68-34-10-5-19-9-29-12 2 12 6 22 10 33 14 30 38 56 69 79 47 36 107 65 158 95 26 16 49 32 67 51 10 10 18 21 23 33 6 13 10 27 10 41 0 16-13 29-30 29-16 0-29-13-29-29 0-8-3-15-9-25-6-8-15-16-27-26-20-16-49-32-81-50-47-26-100-55-144-94-22-20-41-43-55-69-11-21-18-44-21-69-4 1-8 2-12 4-20 7-40 20-63 32-23 12-51 23-84 23-20 0-39-7-56-16-30-17-58-45-83-78-39-51-73-115-99-182s-42-133-42-191c0-32 4-58 13-79 6-16 14-30 24-41 16-16 35-25 52-29 18-5 35-5 49-5s27 3 41 8c23 9 47 23 73 40 38 24 79 52 118 75 19 11 38 20 55 26 16 7 31 10 42 10 17 0 42-8 70-22 42-21 90-54 134-82 23-15 44-28 64-38 10-5 20-9 30-12 10-3 20-5 31-5 13 0 27 0 43 3 12 3 24 7 35 14 18 10 34 27 44 50 11 23 16 51 16 87-1 44-10 93-26 144z m-42-203c-3-10-8-16-12-21-6-6-14-10-24-13-10-2-22-3-34-3-4 0-11 1-20 5-16 6-38 18-63 34-37 23-78 52-120 76-21 12-42 23-63 31-21 8-42 13-63 13-33 0-65-12-97-28-47-24-96-58-139-85-22-14-42-26-58-34-9-5-16-8-22-10-6-2-11-2-14-2-11 0-21 0-30 2-7 2-13 4-18 7-8 5-14 11-20 24-6 13-11 33-11 63 0 35 9 80 23 127 22 69 58 143 96 197 20 27 39 49 58 64 9 7 18 12 25 15 8 4 14 5 19 5 14 0 26-3 39-8 19-7 39-20 63-32 23-12 51-23 86-23 23 0 43 5 61 12 27 10 49 24 69 34 20 10 37 17 58 17 7 0 16-2 27-9 19-10 42-33 65-62 34-45 67-105 91-167 23-61 38-124 38-171-1-26-5-45-10-58z m-557 309l-60 0 0-53-53 0 0-60 53 0 0-54 60 0 0 54 53 0 0 60-53 0 0 53 0 0z m332 0c-24 0-43-19-43-43s19-43 43-43 42 20 42 43-19 43-42 43z m98-118c-24 0-43-19-43-42s19-43 43-43 42 19 42 43-19 42-42 42z" horiz-adv-x="1000" />
<glyph glyph-name="lock" unicode="&#xe80c;" d="m805 460l-78 0c0 31 0 104 0 152 0 20-6 42-16 63-15 32-40 64-76 87-35 24-81 40-135 40-72 0-130-28-169-65-19-19-34-40-44-61-10-21-16-43-16-64l0-152-76 0c-21 0-39-17-39-39l0-484c0-22 18-39 39-39l610 0c21 0 39 17 39 39l0 484c0 22-18 39-39 39z m-475 152c0 10 3 24 10 39 10 22 30 45 56 63 27 17 61 30 104 30 56-1 98-22 126-50 15-13 25-29 32-44 7-14 10-28 10-38l0-152-338 0 0 152z m455-656l-570 0 0 446 570 0 0-446z m-324 216l0-49c0-23 18-41 40-41 22 0 40 18 40 41l0 49c14 11 23 29 23 48 0 34-28 62-63 62s-62-28-62-62c0-19 8-37 22-48z" horiz-adv-x="1000" />
<glyph glyph-name="question" unicode="&#xe80d;" d="m500 850c276 0 500-224 500-500 0-276-224-500-500-500-276 0-500 224-500 500 0 276 224 500 500 500m0-59c-60 0-117-11-172-34-52-22-99-54-140-95-41-40-73-88-95-140-23-55-34-112-34-172s11-117 34-172c22-52 54-100 95-140 40-41 87-73 140-95 54-23 112-34 172-34 59 0 117 11 172 34 52 23 100 54 140 95 41 41 72 88 94 140 24 54 35 112 35 172 0 60-12 117-35 172-22 52-54 100-94 140-40 41-88 73-140 95-55 23-112 34-172 34l0 0z m73-686c0-38-28-69-74-69-44 0-72 31-72 69 0 39 29 69 73 69 45 0 72-30 73-69z m-119 240l0 0 0 0 0 0 0 0z m0 0l0 0 0 0c0 0 0 0 0 0l0 0 0 0z m234 172c-1 5-2 11-2 14-1 3-3 11-4 14-1 2-3 9-4 11 0 2-3 8-4 10-1 3-6 10-7 13-2 2-7 11-10 13-2 3-10 12-12 14-2 3-11 11-14 14-3 3-14 10-16 11-2 2-9 6-12 8-2 1-9 4-12 5s-8 4-10 4c-1 1-7 3-10 4 0 0 0 0-3 1-8 2-17 4-25 5-4 1-8 2-12 2-6 1-13 1-19 1-3 1-6 1-10 1-6 0-6 0-6 0-6-1-15-1-19-2-5 0-18-2-21-3-3-1-13-3-16-4-2 0-10-3-12-4-2 0-9-3-12-4-3-2-11-6-13-7-3-1-9-5-10-6-2-1-7-5-10-7-2-2-11-9-13-11-3-3-10-11-12-13-2-2-7-8-8-10-2-2-6-9-6-9-1-1-4-6-5-8-1-3-6-12-7-15-1-2-5-11-5-13-1-2-4-11-5-17-2-5-5-21-6-24 0-3-2-17-3-25s16-17 37-19l41-5c22-3 40 1 41 9 1 8 3 18 4 22 1 5 4 17 5 20s5 11 6 14c2 3 7 10 8 11 1 2 6 7 7 8 2 1 8 5 10 6 1 1 8 4 9 4 2 1 9 2 12 3 3 0 12 0 15 0 2 0 10-1 13-2 2 0 10-3 11-4 2-1 8-4 11-6 2-1 8-7 10-9 2-2 7-8 8-10 1-2 4-8 4-10 1-2 3-9 3-11 0-2 0-8 0-10 0-1-1-7-2-10-1-2-4-9-5-10 0-1-5-6-5-7-1-1-6-6-8-8-2-3-10-10-12-12-2-2-11-10-15-14-5-4-15-14-16-15-2-1-8-7-11-10-4-4-14-15-16-17-2-3-7-10-8-12-1-1-5-7-6-10-2-3-7-12-8-14 0-2-3-7-3-7l0 0 0 0 0 0c0 0 0-2-1-5-1-2-3-10-4-12-1-3-3-12-3-14s-2-12-2-16c-1-5-1-17-1-19 0-2 0-7 0-8 0 0 0-5 0-7 0-2 0-16 0-24 1-8 18-15 40-15l37 0c21 0 39 7 39 15 0 8 0 19 1 25 0 6 1 21 2 25 0 3 2 12 4 16 1 4 7 14 9 15 1 2 10 11 12 13 2 2 11 10 12 12 2 1 9 7 11 9 2 2 9 8 10 10 2 1 8 7 10 9s8 8 10 10c1 2 8 10 11 13s10 13 12 16c3 4 9 14 10 16 1 1 4 8 5 10 1 3 4 12 5 15s3 13 4 16c1 3 2 14 2 17 1 3 0 25 0 30z" horiz-adv-x="1000" />
<glyph glyph-name="chat" unicode="&#xe80e;" d="m438 850c241 0 437-172 437-383s-196-383-437-383c-38 0-75 4-110 12l0 0c-72-111-171-122-206-122-8 0-13 1-13 1 56 28 69 116 70 183-108 70-179 182-179 309 0 211 196 383 438 383m0-52c-213 0-387-148-387-331 0-53 14-103 42-150 27-45 66-85 113-116l25-15-1-29c-1-38-5-72-12-102 26 17 48 40 67 69l19 30 35-8c32-7 65-11 98-11 213 0 386 149 386 332 1 183-173 331-385 331l0 0z m562-455c0 88-35 170-92 235 10-36 16-73 16-111 0-2 0-5 0-7 16-37 25-76 25-117 0-53-14-103-42-150-27-45-66-85-114-116l-24-15 1-29c1-39 4-73 11-102-25 16-47 39-66 68l-19 31-35-8c-32-7-65-11-98-11-52 0-101 9-147 25-22 1-44 3-66 7-7-9-14-17-20-24 67-38 147-59 233-59 37 0 74 4 109 12l0 0c72-112 171-122 206-122 8 0 13 1 13 1-56 27-68 116-70 183 109 70 179 182 179 309z" horiz-adv-x="1000" />
<glyph glyph-name="xbox" unicode="&#xe80f;" d="m0 550q0-87 29-166t80-145q-1 4-3 11t-2 33v7q0 22 4 47 5 30 21 76t45 96 78 116 117 136q-66 40-124 73t-85 44l-26 13q-64-69-99-156t-35-185z m139-344q69-73 163-114t198-41q105 0 198 41t163 114q-1 5-3 13t-14 36-28 55-45 71-65 84-90 91-118 97q-57-42-107-89t-86-89-65-84-48-74-30-58-18-40z m36 724q5 3 15 7t41 9q19 3 37 3 15 0 31-2 35-4 90-26t111-63l0-1 0 1q41 29 80 49t72 28 59 12q16 1 28 1 11 0 21-1 20-3 35-6t22-8l7-3q-67 57-150 88t-174 31-175-31-150-88z m456-169q53-55 96-107t69-96 48-83 30-71 16-59 7-47v-7q0-15-1-25-1-14-3-20l-2-7q52 65 80 145t29 166q0 97-35 185t-99 156q-88-39-235-130z" horiz-adv-x="1000" />
<glyph glyph-name="playstation" unicode="&#xe810;" d="m868 188l-313-126v93l283 103q23 11 25 24t-20 20-53 6-56-13l-179-48v92q71 33 216 31 39 0 56 0t43-5 49-14q43-17 59-36t5-40-39-42-76-45z m-189 244q-21 0-31 0t-29 2-26 6-19 11-14 17-5 26v216q0 13-9 22t-22 9-21-9-10-22v-648l-123 61v742l123-48q24-14 62-29 82-37 134-97t51-136v-31q0-13-1-22t-3-22-9-24-19-17-29-7z m-612-259q-42 17-58 36t-6 40 39 42 76 46l191 77v-89l-161-59q-29-18-24-34t30-16q24 0 62 7t65 14l28 7v-86q-44-3-93-3-38 0-56 0t-44 6-49 12z" horiz-adv-x="1000" />
<glyph glyph-name="chat-a" unicode="&#xe811;" d="m438 850c241 0 437-171 437-383s-196-383-437-383c-38 0-75 5-110 13l0 0c-72-112-171-123-206-123-8 0-13 1-13 1 56 28 69 116 70 183-108 70-179 182-179 309 0 212 196 383 438 383m0-51c-213 0-387-149-387-332 0-53 14-103 42-150 27-45 66-85 113-116l25-15-1-29c-1-38-5-72-12-102 26 17 48 40 67 69l19 30 35-8c32-7 65-10 98-10 213 0 386 148 386 331 1 183-173 332-385 332l0 0z m562-456c0 88-35 170-92 235 10-35 16-72 16-111 0-60-14-118-39-170-26-52-62-99-106-137-88-78-209-124-341-124-30 0-60 2-88 7-7-9-14-17-20-24 67-38 147-59 233-59 37 0 74 4 109 12l0 0c72-112 171-122 206-122 8 0 13 1 13 1-56 27-68 116-70 183 109 70 179 182 179 309z" horiz-adv-x="1000" />
<glyph glyph-name="github" unicode="&#xe812;" d="m620 286q26 0 45-26t19-64-19-64-45-26q-28 0-47 26t-19 64 19 64 47 26z m226 234q74-80 74-194 0-74-17-133t-43-96-64-65-70-41-73-20-62-8-45-1q-6 0-36-1t-50-1-50 1-36 1q-24 0-45 1t-62 8-73 20-70 41-64 65-43 96-17 133q0 114 74 194-8 4-1 80t33 140q92-10 228-104 46 12 126 12 84 0 126-12 62 42 119 68t83 30l26 6q26-64 33-140t-1-80z m-384-514q166 0 251 40t85 164q0 72-54 120-28 26-65 32t-113 0-104-6l-4 0q-32 0-83 4t-80 5-63-7-56-28q-52-46-52-120 0-124 84-164t250-40l4 0z m-160 280q26 0 45-26t19-64-19-64-45-26q-28 0-47 26t-19 64 19 64 47 26z" horiz-adv-x="920" />
<glyph glyph-name="liked" unicode="&#xe813;" d="m865 208c6 6 14 15 19 27 6 11 9 24 9 38 0 20-8 37-17 49-9 13-20 21-27 27 0 0-1 0-1 1 1 0 1 1 1 2 2 9 3 20 3 33 0 10-2 20-6 30-5 10-11 20-21 29-18 18-47 32-84 32-30 0-67-5-102-10-35-6-68-11-85-14-5 0-9 0-9 0-2 0-7 1-11 5-3 3-5 7-5 11 0 19 6 37 16 59 9 21 22 44 31 71 6 19 11 39 11 61 0 23-6 45-17 63-10 18-25 33-43 44-12 6-26 10-41 10l0 0c-9 0-18-1-26-5-8-3-14-8-20-14-10-11-15-23-17-34-2-7-3-14-3-20 0-33-13-63-34-93s-50-55-78-80c-19-17-37-32-53-47-20-20-31-43-40-62-9-19-17-36-26-48-6-8-13-14-22-19-12-7-30-12-60-12l0-59 3-228 0-58c9 0 18 1 26 1 26 0 48-4 72-11s50-15 82-25c63-19 147-38 280-38 70 0 122 3 161 10 40 6 67 16 88 31 13 10 23 25 27 39 3 8 4 17 4 24 0 17-2 30-6 40-1 2-1 4-2 6 0 1 1 1 1 2 9 7 23 17 34 32 7 11 13 25 13 41s-5 31-11 41c-5 7-10 13-14 18z" horiz-adv-x="1000" />
<glyph glyph-name="like" unicode="&#xe814;" d="m865 208c6 6 14 15 19 27 6 11 9 23 9 38 0 20-8 37-17 49-9 13-20 21-27 27 0 0-1 0-1 0 1 1 1 2 1 3 2 9 3 20 3 33 0 10-2 20-6 30-5 10-11 20-21 29-18 18-47 32-84 31-30 0-67-4-102-10-35-5-68-10-85-13-5 0-9 0-9 0-2-1-7 1-11 5-3 3-5 7-5 11 0 19 6 37 16 58 9 22 22 45 31 72 6 19 11 39 11 61 0 23-6 45-17 63-10 18-25 33-43 43-12 7-26 11-41 11l0 0c-9 0-18-2-26-5-8-3-14-8-20-14-10-11-15-23-17-34-2-7-3-14-3-20 0-33-13-63-34-93s-50-55-78-80c-19-17-37-32-53-48-20-19-31-42-40-61-9-20-17-36-26-48-6-8-13-14-22-19-12-7-30-12-60-12l0-59c31 0 56 5 77 14s38 22 49 37c8 10 14 20 20 30 7 13 12 26 18 38 8 16 15 29 26 39 19 20 49 44 79 72 30 28 61 61 81 101 14 26 23 57 23 90 0 2 0 7 1 10 2 3 3 4 3 4 0 0 0 0 3 0 3 0 7-1 12-3 5-3 10-7 14-13 9-11 15-27 15-43 0-21-6-41-15-63-10-22-23-44-32-70-6-18-11-37-11-58 0-22 10-41 24-53 13-13 31-22 51-22 5 0 10 1 16 1 6 1 12 2 20 3 15 2 33 5 52 8 38 6 81 12 108 12 17 0 28-4 35-9 8-4 13-10 15-15 2-3 3-6 3-8 0 0 0 0 0 0 0-14-4-31-5-32l-1-4 0-4c0 0 0 0 0-7 0-7 2-12 4-15s3-5 5-7c2-2 4-4 6-6 4-3 8-5 11-8 7-5 14-12 17-18 3-4 4-7 4-11-1-8-2-12-5-16-3-5-7-9-12-14-4-4-8-7-13-15-3-4-6-11-6-20 0-7 2-12 4-16s4-6 5-8c4-4 6-7 9-10 6-6 11-12 13-17 1-3 2-5 2-8 0-1 0-2-1-4-1-2-2-4-5-7-5-6-13-12-21-19-6-5-12-10-18-18-4-5-7-13-7-23 0-6 1-13 3-17 2-4 3-6 4-7 2-3 2-4 3-9 1-4 2-9 2-17 0-3-1-6-2-7 0-2-1-4-3-6-4-4-14-11-35-17-14-4-33-7-57-10-32-4-73-6-124-6-97 0-163 11-215 23-53 13-91 28-132 39-27 7-56 12-88 12-8 0-17 0-26 0l0-59c9 0 18 1 26 1 26 0 48-4 73-11 24-6 50-15 81-25 63-19 147-38 281-38 69 0 121 3 161 10 39 6 67 16 87 31 14 11 23 25 28 39 2 9 3 17 3 24 0 17-2 30-5 40-1 2-2 4-3 6 1 1 1 1 2 2 9 7 22 17 33 32 7 11 14 25 14 41s-6 31-12 41c-5 7-10 13-14 18z" horiz-adv-x="1000" />
<glyph glyph-name="rss" unicode="&#xe815;" d="m214 100q0-45-31-76t-76-31-76 31-31 76 31 76 76 31 76-31 31-76z m286-69q1-15-9-26-11-12-27-12h-75q-14 0-24 9t-11 23q-12 128-103 219t-219 103q-14 1-23 11t-9 24v75q0 16 12 26 9 10 24 10h3q89-7 170-45t145-101q63-63 101-145t45-171z m286-1q1-15-10-26-10-11-26-11h-80q-14 0-25 10t-11 23q-6 120-56 228t-129 188-188 129-227 57q-14 0-24 11t-10 24v80q0 15 11 26 10 10 25 10h1q147-8 280-67t238-164q104-104 164-238t67-280z" horiz-adv-x="785.7" />
<glyph glyph-name="tweet" unicode="&#xe816;" d="m977 645l-54-14 22 52 14 34-59-20c-14-5-27-11-38-16-12-6-24-11-37-15l-13-4-11 9c-35 26-76 40-121 40-63 0-123-27-162-73-24-28-40-63-45-100l-3-29-29 5c-119 22-193 87-266 158l-25 24-18-30c-24-38-30-89-17-143 0-2 0-3 1-4l11-43-25 5 3-38c3-49 19-90 45-122l4-5 1-5 11-41c11-40 33-73 66-97l45-35-55-14c-35-9-75-14-119-16l-101-2 89-50c43-24 89-43 136-55 45-12 91-18 137-18 71 0 141 15 206 42 64 28 121 67 169 117 44 47 79 101 102 160 24 60 36 124 36 189l0 13 9 8c22 20 48 46 70 77l42 62-21-6z" horiz-adv-x="1000" />
<glyph glyph-name="table" unicode="&#xe817;" d="m286 82v107q0 8-5 13t-13 5h-179q-7 0-13-5t-5-13v-107q0-8 5-13t13-5h179q8 0 13 5t5 13z m0 214v108q0 7-5 12t-13 5h-179q-7 0-13-5t-5-12v-108q0-7 5-12t13-5h179q8 0 13 5t5 12z m285-214v107q0 8-5 13t-12 5h-179q-8 0-13-5t-5-13v-107q0-8 5-13t13-5h179q7 0 12 5t5 13z m-285 429v107q0 8-5 13t-13 5h-179q-7 0-13-5t-5-13v-107q0-8 5-13t13-5h179q8 0 13 5t5 13z m285-215v108q0 7-5 12t-12 5h-179q-8 0-13-5t-5-12v-108q0-7 5-12t13-5h179q7 0 12 5t5 12z m286-214v107q0 8-5 13t-13 5h-178q-8 0-13-5t-5-13v-107q0-8 5-13t13-5h178q8 0 13 5t5 13z m-286 429v107q0 8-5 13t-12 5h-179q-8 0-13-5t-5-13v-107q0-8 5-13t13-5h179q7 0 12 5t5 13z m286-215v108q0 7-5 12t-13 5h-178q-8 0-13-5t-5-12v-108q0-7 5-12t13-5h178q8 0 13 5t5 12z m0 215v107q0 8-5 13t-13 5h-178q-8 0-13-5t-5-13v-107q0-8 5-13t13-5h178q8 0 13 5t5 13z m72 178v-607q0-37-27-63t-63-26h-750q-36 0-63 26t-26 63v607q0 37 26 63t63 27h750q37 0 63-27t27-63z" horiz-adv-x="928.6" />
<glyph glyph-name="user" unicode="&#xe818;" d="m895-34c0 0 0 0 0 0-4 19-9 36-15 50 0 0-28 54-83 91-3 2-7 4-10 6-29 15-61 25-90 38-29 12-55 27-73 48l0 0c0 18-4 35-3 49 0 5 0 9 1 13 1 6 5 12 10 19 5 7 11 14 15 23 8 16 12 31 17 49 11 7 20 19 26 33 7 15 11 33 11 50 0 16-3 31-11 45 7 21 12 48 15 75l-23 131c0 0-24 24-38 32-1 1-2 1-2 1-13 11-26 9-37 15-15 7-24 23-42 28-113 35-213-18-244-90-20-46-19-94-12-147 2-13 11-30 10-44-1-13-13-23-14-41-1-39 16-66 39-85 3-16 7-29 14-42 8-19 25-34 28-48 5-18 3-54-2-68-12-35-95-57-137-75-70-32-125-69-140-155l0-10c0-13 4-30 25-30l738 0c19 0 30 14 27 34 0 2 0 3 0 5z m-739 9l0 0c4 22 15 40 29 54 24 25 59 41 96 56 36 14 74 28 103 47 18 13 30 25 38 41 7 17 10 37 11 66 0 7 1 16 1 25 0 8-1 17-3 24-3 6-8 10-12 14-4 4-8 7-10 10-14 22-19 45-25 79l0 5-5 0c0 0 0 0 0 0-9 0-15 4-20 10-4 7-7 16-7 25 0 13 5 25 14 29l4 2-1 5c-9 38-19 81-19 122 0 29 5 56 20 80 20 33 69 52 115 55 4 1 9 1 13 1 17 0 33-3 46-8 13-5 23-12 28-22l2-4 3 0c29 0 47-12 59-31 11-20 16-47 16-75 0-41-10-85-20-116l-1 0 0-1c0 0 0-1 0-2 0-4 2-7 4-10 3-3 6-5 9-8 2-2 4-4 4-8 1-3 1-5 1-7 0-9-2-18-7-24-5-7-11-11-19-11 0 0-1 0-1 0l-6 0-1-5c-4-45-19-79-44-103l-2-2 0-2c1-7 1-13 1-19 0-18-2-36-2-52 0-10 1-20 3-29 6-22 24-39 44-52 20-14 43-25 62-33 39-16 77-28 107-47 28-18 49-41 60-79l-688 0 0 0z" horiz-adv-x="1000" />
<glyph glyph-name="pin" unicode="&#xe819;" d="m573 37q0-23-15-38t-37-15q-21 0-37 16l-169 169-315-236 236 315-168 169q-24 23-12 56 14 32 48 32 157 0 270 57 90 45 151 171 9 24 36 32t50-13l208-209q21-23 14-50t-32-36q-127-63-172-152-56-110-56-268z" horiz-adv-x="834" />
<glyph glyph-name="youtube" unicode="&#xe81b;" d="m714 350q0 21-16 30l-286 179q-17 11-36 1-19-10-19-31v-358q0-21 19-31 9-4 17-4 11 0 19 5l286 179q16 9 16 30z m286 0q0-54-1-84t-4-76-13-82q-9-41-38-69t-70-32q-123-14-374-14t-374 14q-40 4-70 32t-39 69q-7 36-12 82t-4 76-1 84 1 84 4 76 13 82q9 41 38 69t70 32q123 14 374 14t374-14q40-4 70-32t39-69q8-36 12-82t4-76 1-84z" horiz-adv-x="1000" />
<glyph glyph-name="facebook" unicode="&#xe81c;" d="m535 843v-147h-87q-48 0-65-20t-17-60v-106h164l-22-165h-142v-424h-171v424h-142v165h142v122q0 104 58 161t155 57q82 0 127-7z" horiz-adv-x="571.4" />
<glyph glyph-name="steam" unicode="&#xe81d;" d="m740 432h-10l-239-164q2-19 2-21 0-78-53-131t-131-54-130 54-55 131q0 40 18 77l-123 122q-19 19-19 46t19 45 46 18 44-18l122-122q38 17 78 17 4 0 21-2l164 237q0 1 0 5t-1 6q0 103 72 175t175 72 174-72 72-175-72-174-174-72z m-431-62q-13 0-30-4l72-72q10-9 15-25 4-12 4-22 0-27-17-44t-44-18q-6 0-13 1-21 4-35 19l-72 71q-4-16-4-29 0-51 36-87t88-37 87 37 36 87-36 87-87 36z m431 494q-76 0-131-55t-54-131 54-131 131-53 131 53 54 131-54 131-131 55z m0-309q-51 0-88 36t-35 87 35 87 88 37 87-37 36-87-36-87-87-36z" horiz-adv-x="1000" />
<glyph glyph-name="bold" unicode="&#xe81e;" d="m310 1q41-18 78-18 210 0 210 187 0 64-23 101-15 24-35 41t-37 26-45 14-47 6-53 1q-40 0-56-6 0-29 0-88t-1-89q0-4 0-37t0-54 2-47 7-37z m-8 417q23-4 61-4 46 0 80 7t61 25 41 50 15 79q0 39-16 68t-45 46-60 24-69 8q-28 0-73-7 0-28 3-84t2-85q0-15 0-45t-1-44q0-26 1-38z m-302-497l1 53q9 2 48 9t59 15q4 7 7 15t4 19 4 18 1 21 0 19v36q0 548-12 572-2 5-12 8t-25 6-28 4-27 3-17 2l-2 46q55 1 190 6t208 5q13 0 38 0t38 0q39 0 76-7t72-24 60-39 41-59 16-76q0-29-9-54t-22-40-36-32-41-25-47-22q86-20 144-75t57-139q0-55-20-100t-52-73-77-47-91-27-98-8q-25 0-74 2t-74 1q-59 0-171-6t-129-7z" horiz-adv-x="785.7" />
<glyph glyph-name="italic" unicode="&#xe820;" d="m0-78l10 48q3 1 45 12t62 21q16 19 23 56 1 4 35 162t63 303 29 165v14q-13 7-30 11t-39 4-32 3l10 58q19-2 67-4t84-4 67-1q27 0 55 1t67 4 55 4q-2-22-10-50-17-6-57-16t-60-19q-5-10-8-23t-5-23-4-25-4-24q-15-82-49-234t-43-198q-1-5-7-32t-11-51-9-46-4-32l1-10q9-3 103-18-2-24-9-55-6 0-18-1t-18-1q-16 0-49 6t-48 6q-77 1-115 1-28 0-79-5t-68-6z" horiz-adv-x="571.4" />
<glyph glyph-name="new" unicode="&#xe821;" d="m0 471l379-2 125 360 117-364 379-8-309-220 110-366-307 225-310-215 119 360z" horiz-adv-x="1000" />
<glyph glyph-name="shield" unicode="&#xe822;" d="m607 314v357h-250v-634q67 35 119 76 131 103 131 201z m107 429v-429q0-48-18-95t-47-84-66-71-70-57-68-43-50-28-23-11q-7-4-15-4t-14 4q-9 4-24 11t-50 28-68 43-70 57-66 71-46 84-19 95v429q0 14 11 25t25 11h643q14 0 25-11t10-25z" horiz-adv-x="714.3" />
<glyph glyph-name="logout" unicode="&#xe823;" d="m357 46q0-2 1-11t0-14-2-14-5-11-12-3h-178q-67 0-114 47t-47 114v392q0 67 47 114t114 47h178q8 0 13-5t5-13q0-2 1-11t0-15-2-13-5-11-12-3h-178q-37 0-63-27t-27-63v-392q0-37 27-63t63-27h174t6 0 7-2 4-3 4-5 1-8z m518 304q0-14-11-25l-303-304q-11-10-25-10t-25 10-11 25v161h-250q-14 0-25 11t-11 25v214q0 15 11 25t25 11h250v161q0 14 11 25t25 10 25-10l303-304q11-10 11-25z" horiz-adv-x="928.6" />
<glyph glyph-name="chat-1" unicode="&#xe825;" d="m863 185v-185q-7 4-19 11t-52 43-79 81q-47-12-96-12-71 0-130 15t-96 35-65 47-37 49-12 39h93q124 0 221 44t154 128 57 198q184-93 184-262 0-137-123-231z m-61 493z m-432-308q-49 0-97 11-39-46-77-80t-55-44l-18-10v185q-123 93-123 231 0 87 50 163t135 118 185 43 187-43 133-118 50-163-50-155-134-102-186-36z m0 555q-84 0-155-33t-111-90-42-123 42-124 111-90 155-33 154 33 113 90 42 124-42 123-113 90-154 33z" horiz-adv-x="1000" />
<glyph glyph-name="checkbox-a" unicode="&#xe827;" d="m961 850c21 0 39-18 39-39l0-922c0-21-18-39-39-39l-922 0c-21 0-39 18-39 39l0 922c0 21 18 39 39 39l922 0m-20-59l-882 0 0-882 882 0 0 882 0 0z m-629-701l-148 148 0 0c-12 11-12 30 0 41l0 0c11 11 30 11 41 0l0 0 127-127 460 460c11 11 30 11 41 0l0 0c12-12 12-31 0-42l0 0-480-480c-5-6-13-9-21-9l0 0c-7 0-15 3-20 9l0 0z" horiz-adv-x="1000" />
<glyph glyph-name="checkbox" unicode="&#xe828;" d="m961 850c21 0 39-18 39-39l0-922c0-21-18-39-39-39l-922 0c-21 0-39 18-39 39l0 922c0 21 18 39 39 39l922 0m-20-59l-882 0 0-882 882 0 0 882 0 0z" horiz-adv-x="1000" />
<glyph glyph-name="skype" unicode="&#xe82b;" d="m564 392c-36 10-152 23-156 71-5 63 88 67 132 48 40-16 59-64 102-64 27 0 52 17 55 43 6 49-44 83-82 99-45 20-112 28-158 24-39-3-79-13-108-35-43-32-80-109-47-178 23-47 87-71 141-86 49-13 149-19 152-74 4-59-79-84-138-63-52 19-66 92-122 88-20-1-34-17-39-31-14-45 23-86 47-103 68-50 204-60 281-20 54 28 91 82 86 152-5 79-69 108-146 129z m-251 328l0 0c18 0 35-2 53-7 6-1 13-5 21-9 12-6 26-13 42-15 4 0 8-1 12-1 12 0 24 2 34 4 8 2 15 3 22 3 2 0 4 0 5 0 56 0 108-12 154-35 37-20 72-47 103-82 42-47 92-128 86-243-1-3-1-8-2-12-3-11-6-23-4-38 2-16 10-31 17-43 3-6 6-12 8-15 12-40 11-80-3-119-12-34-34-64-61-86-16-13-60-42-120-42-16 0-33 2-50 7-4 1-10 4-15 7-11 7-25 15-42 17-3 0-7 0-10 0-11 0-21-1-30-3-6-1-12-3-16-3-6 0-11 0-17 0-51 0-98 10-141 29-37 17-71 41-102 71-37 38-64 79-81 123-20 55-25 115-15 181l1 10-4 8c-19 38-30 63-30 106 0 48 20 96 54 131 35 36 81 56 131 56m0 32c-122 0-216-103-216-219-1-51 14-82 33-120-24-153 34-258 105-330 61-61 146-110 266-110 5 0 11 1 18 1 14 0 29 6 44 6 2 0 4 0 6 0 19-3 35-19 53-24 20-5 39-8 58-8 57 0 106 23 139 49 61 48 105 140 75 239-6 17-22 34-24 52-1 16 5 32 6 45 6 117-40 206-94 266-58 66-147 127-280 127-1 0-3 0-5 0-19 0-37-7-55-7-3 0-6 1-9 1-20 2-38 18-59 24-21 5-41 8-61 8l0 0z" horiz-adv-x="1000" />
<glyph glyph-name="bullet" unicode="&#xe82d;" d="m760 663l-520 0c-21 0-39-18-39-40l0-546c0-22 18-39 39-39l520 0c21 0 39 17 39 39l0 546c0 22-18 40-39 40z" horiz-adv-x="1000" />
<glyph glyph-name="googleplus" unicode="&#xe82f;" d="m451 297c-10 8-24 18-36 30s-22 26-22 44c0 6 2 13 5 21 5 15 18 27 31 38 13 11 28 22 38 32 20 21 42 50 45 87 1 6 1 12 1 17 0 56-26 99-62 127l-11 8 14 2c4 0 8 1 12 1 6 0 12-1 17-1 6-1 10-1 15-1 3 0 7 0 10 1 3 0 8 5 13 10 5 6 10 12 14 16 4 5 10 10 14 15 2 1 3 3 4 4-13-1-27-1-40-1-25 0-50 1-74 2-24 1-49 1-72 1-19 0-38 0-56-1-100-8-180-74-197-156-2-7-2-21-2-32 0-7 0-13 0-17 3-42 21-80 51-108 31-27 73-44 126-44 6 0 13 0 19 0l13 1-8-10c-7-10-11-23-11-35 0-27 15-55 29-65l16-12-19 1c-9 1-17 1-25 1-62 0-117-15-159-40-41-26-71-62-83-105-3-12-4-23-4-33 0-27 9-51 24-69 40-47 127-76 217-76 22 0 44 1 66 5 49 8 97 26 132 54 36 28 60 66 61 115 0 3 0 5 0 7 0 47-13 78-33 102-18 24-45 43-73 64z m-114 119c-1 0-2 0-2 0-43 0-79 23-106 56-26 33-41 77-41 120 0 24 4 47 14 68 12 28 34 53 74 59 4 0 9 1 14 1 15 0 31-3 42-8 27-12 51-36 69-68 18-32 29-71 29-113 0-6 0-13 0-19-3-25-11-49-27-67-15-17-38-29-66-29z m104-407c-32-22-75-32-118-32-46 0-92 12-127 35-36 23-60 58-60 103 0 5 0 9 1 14 4 38 32 71 55 88 30 22 66 35 119 37 2 0 5 0 8 0 17 0 42-1 59-7 9-3 21-11 32-19 12-8 23-16 30-22 21-15 50-41 55-79 0-5 1-11 1-16 0-46-22-80-55-102z m484 364l-66 0c-11 0-20 9-20 20l0 66c0 5-4 9-9 9l-28 0c-4 0-9-4-9-9l0-66c0-11-9-20-20-20l-66 0c-5 0-9-4-9-9l0-28c0-4 4-9 9-9l66 0c11 0 20-9 20-20l0-66c0-5 4-9 9-9l28 0c4 0 9 4 9 9l0 66c0 11 9 20 20 20l66 0c5 0 9 4 9 9l0 28c0 5-4 9-9 9z" horiz-adv-x="1000" />
<glyph glyph-name="twitch" unicode="&#xe830;" d="m500 608v-242h-81v242h81z m222 0v-242h-81v242h81z m0-424l141 141v444h-666v-585h182v-121l121 121h222z m222 666v-565l-242-243h-182l-121-121h-121v121h-222v647l61 161h827z" horiz-adv-x="1000" />
<glyph glyph-name="d-arr-r" unicode="&#xe831;" d="m906 350c0-17-6-35-19-48l0 0-439-452-42 43 439 452c2 1 2 3 2 5l0 0c0 2 0 3-2 5l0 0-439 452 42 43 439-452c13-13 19-31 19-48l0 0c0 0 0 0 0 0l0 0z m-312 0c0-17-6-35-19-48l0 0-439-452-42 43 439 452c1 1 2 3 2 5l0 0c0 2-1 3-2 5l0 0-439 452 42 43 439-452c13-13 19-31 19-48l0 0c0 0 0 0 0 0l0 0z" horiz-adv-x="1000" />
<glyph glyph-name="d-arr-l" unicode="&#xe832;" d="m94 350c0 17 6 35 19 48l0 0 439 452 42-43-439-452c-1-2-2-3-2-5l0 0c0-2 1-4 2-5l0 0 439-452-42-43-439 452c-13 13-19 31-19 48l0 0 0 0 0 0z m312 0c0 17 7 35 19 48l0 0 440 452 41-43-439-452c-1-2-2-3-2-5l0 0c0-2 1-4 2-5l0 0 439-452-41-43-440 452c-12 13-19 31-19 48l0 0 0 0 0 0z" horiz-adv-x="1000" />
<glyph glyph-name="arr-r" unicode="&#xe833;" d="m750 350c0-17-6-35-19-48l0 0-439-452-42 43 439 452c1 1 2 3 2 5l0 0c0 2-1 3-2 5l0 0-439 452 42 43 439-452c13-13 19-31 19-48l0 0 0 0 0 0z" horiz-adv-x="1000" />
<glyph glyph-name="arr-l" unicode="&#xe834;" d="m250 350c0 17 6 35 19 48l0 0 439 452 42-43-439-452c-1-2-2-3-2-5l0 0c0-2 1-4 2-5l0 0 439-452-42-43-439 452c-13 13-19 31-19 48l0 0c0 0 0 0 0 0l0 0z" horiz-adv-x="1000" />
<glyph glyph-name="locked" unicode="&#xe835;" d="m582 437v-356q0-32-32-32h-518q-32 0-32 32v356q0 10 3 17t7 10 12 5 13 2 16 0 14-1v127h1q9 87 74 141t153 53 151-62 71-152h1l2-107q4 0 15 1t15 0 13-2 12-5 6-10 3-17z m-161 162q0 51-37 74t-91 23q-53 0-92-25t-39-77v-124h259v129z" horiz-adv-x="582" />
<glyph glyph-name="tag" unicode="&#xe837;" d="m1000 714v-270l-595-595-405 405 595 595h270z m-160-160q28 28 28 68t-28 67-67 28-68-28-28-67 28-68 68-28 67 28z" horiz-adv-x="1000" />
<glyph glyph-name="list-bullet" unicode="&#xe838;" d="m214 64q0-44-31-76t-76-31-76 31-31 76 31 76 76 31 76-31 31-76z m0 286q0-45-31-76t-76-31-76 31-31 76 31 76 76 31 76-31 31-76z m786-232v-107q0-7-5-13t-13-5h-678q-8 0-13 5t-5 13v107q0 7 5 12t13 6h678q7 0 13-6t5-12z m-786 518q0-45-31-76t-76-31-76 31-31 76 31 76 76 31 76-31 31-76z m786-232v-108q0-7-5-12t-13-5h-678q-8 0-13 5t-5 12v108q0 7 5 12t13 5h678q7 0 13-5t5-12z m0 285v-107q0-7-5-12t-13-6h-678q-8 0-13 6t-5 12v107q0 8 5 13t13 5h678q7 0 13-5t5-13z" horiz-adv-x="1000" />
<glyph glyph-name="list-numbered" unicode="&#xe839;" d="m213-54q0-45-31-70t-75-26q-60 0-96 37l31 49q28-25 60-25 16 0 28 8t12 24q0 35-59 31l-14 31q4 6 18 24t24 31 20 21v1q-9 0-27-1t-27 0v-30h-59v85h186v-49l-53-65q28-6 45-27t17-49z m1 350v-89h-202q-4 20-4 30 0 29 14 52t31 38 37 27 31 24 14 25q0 14-9 22t-22 7q-25 0-45-32l-47 33q13 28 40 44t59 16q40 0 68-23t28-63q0-28-19-51t-42-36-42-28-20-30h71v34h59z m786-178v-107q0-8-5-13t-13-5h-678q-8 0-13 5t-5 13v107q0 8 5 13t13 5h678q7 0 13-6t5-12z m-786 502v-56h-187v56h60q0 22 0 68t1 67v7h-1q-5-10-28-30l-40 42 76 71h59v-225h60z m786-216v-108q0-7-5-12t-13-5h-678q-8 0-13 5t-5 12v108q0 7 5 12t13 5h678q7 0 13-5t5-12z m0 285v-107q0-7-5-12t-13-6h-678q-8 0-13 6t-5 12v107q0 8 5 13t13 5h678q7 0 13-5t5-13z" horiz-adv-x="1000" />
<glyph glyph-name="strike" unicode="&#xe83a;" d="m982 350q8 0 13-5t5-13v-36q0-7-5-12t-13-5h-964q-8 0-13 5t-5 12v36q0 8 5 13t13 5h964z m-712 36q-16 19-29 44-27 54-27 105 0 101 75 173 74 71 219 71 28 0 94-11 36-7 98-27 6-21 12-66 8-68 8-102 0-10-3-25l-7-2-46 4-8 1q-28 83-58 114-49 51-117 51-64 0-102-33-37-32-37-81 0-41 37-79t156-72q38-11 96-36 33-16 53-29h-414z m282-143h230q4-22 4-51 0-62-23-119-13-30-40-58-20-19-61-45-44-27-85-37-45-12-113-12-64 0-109 13l-78 23q-32 8-40 15-5 5-5 12v8q0 60-1 87 0 17 0 38l1 20v25l57 1q8-19 17-40t12-31 7-15q20-32 45-52 24-20 59-32 33-12 73-12 36 0 78 15 43 14 68 48 26 34 26 72 0 47-45 87-19 16-77 40z" horiz-adv-x="1000" />
<glyph glyph-name="underline" unicode="&#xe83b;" d="m27 726q-21 1-25 2l-2 49q7 0 22 0 34 0 63-2 74-4 92-4 48 0 94 2 65 2 82 3 31 0 48 1l-1-8 1-36v-5q-33-5-69-5-33 0-44-14-7-7-7-73 0-8 0-18t0-15l1-128 8-156q3-69 28-112 20-33 54-52 49-26 98-26 58 0 107 16 31 10 55 28 27 20 37 36 20 31 29 63 12 41 12 128 0 44-2 72t-6 68-8 89l-2 33q-3 37-13 49-19 20-43 19l-56-1-8 2 1 48h47l114-6q43-2 110 6l10-2q3-21 3-28 0-4-2-17-25-7-47-8-41-6-44-9-8-9-8-23 0-4 0-15t1-17q5-11 13-221 3-109-9-170-8-42-23-68-21-36-62-69-42-32-102-49-61-19-142-19-93 0-159 26-66 26-99 68-34 42-47 109-9 44-9 132v186q0 105-9 119-14 20-82 21z m830-787v36q0 8-5 13t-13 5h-821q-8 0-13-5t-5-13v-36q0-8 5-13t13-5h821q8 0 13 5t5 13z" horiz-adv-x="857.1" />
<glyph glyph-name="superscript" unicode="&#xe83c;" d="m501 86v-93h-139l-89 141-13 23q-4 5-6 12h-2l-5-12q-5-11-14-25l-86-139h-144v93h71l110 162-103 152h-76v94h154l77-127q1-2 13-24 4-5 6-11h2q1 5 6 11l14 24 78 127h143v-94h-69l-103-149 114-165h61z m355 379v-115h-287l-1 15q-3 16-3 26 0 35 15 65t36 48 47 37 47 30 36 30 15 36q0 21-17 35t-39 13q-29 0-54-21-8-7-20-22l-59 52q15 20 35 37 46 36 105 36 61 0 99-33t38-89q0-31-13-57t-35-43-45-33-46-28-37-29-17-35h130v45h70z" horiz-adv-x="857.1" />
<glyph glyph-name="subscript" unicode="&#xe83d;" d="m501 86v-93h-139l-89 141-13 23q-4 5-6 12h-2l-5-12q-5-11-14-25l-86-139h-144v93h71l110 162-103 152h-76v94h154l77-127q1-2 13-24 4-5 6-11h2q1 5 6 11l14 24 78 127h143v-94h-69l-103-149 114-165h61z m356-121v-115h-287l-2 15q-2 25-2 26 0 35 15 65t36 48 47 37 47 30 36 30 15 36q0 21-17 35t-39 13q-29 0-54-21-8-6-20-22l-59 52q15 20 35 37 45 36 105 36 62 0 99-33t38-89q0-37-19-66t-47-48-55-35-49-35-23-41h130v45h70z" horiz-adv-x="857.1" />
<glyph glyph-name="smile" unicode="&#xe83e;" d="m633 250q-21-67-77-109t-127-41-128 41-77 109q-4 14 3 27t21 18q14 4 27-2t17-22q14-44 52-72t85-28 84 28 52 72q4 15 18 22t27 2 21-18 2-27z m-276 243q0-30-21-51t-50-21-51 21-21 51 21 50 51 21 50-21 21-50z m286 0q0-30-21-51t-51-21-50 21-21 51 21 50 50 21 51-21 21-50z m143-143q0 73-29 139t-76 114-114 76-138 28-139-28-114-76-76-114-29-139 29-139 76-113 114-77 139-28 138 28 114 77 76 113 29 139z m71 0q0-117-57-215t-156-156-215-58-216 58-155 156-58 215 58 215 155 156 216 58 215-58 156-156 57-215z" horiz-adv-x="857.1" />
<glyph glyph-name="note" unicode="&#xe83f;" d="m819 638q16-16 27-42t11-50v-642q0-23-15-38t-38-16h-750q-23 0-38 16t-16 38v892q0 23 16 38t38 16h500q22 0 49-11t42-27z m-248 136v-210h210q-5 16-12 23l-175 175q-6 7-23 12z m215-853v572h-232q-23 0-38 15t-16 38v233h-429v-858h715z m-572 483q0 7 5 12t13 5h393q8 0 13-5t5-12v-36q0-8-5-13t-13-5h-393q-8 0-13 5t-5 13v36z m411-125q8 0 13-5t5-13v-36q0-8-5-13t-13-5h-393q-8 0-13 5t-5 13v36q0 8 5 13t13 5h393z m0-143q8 0 13-5t5-13v-36q0-8-5-13t-13-5h-393q-8 0-13 5t-5 13v36q0 8 5 13t13 5h393z" horiz-adv-x="857.1" />
<glyph glyph-name="alert" unicode="&#xe840;" d="m819 584q8-7 16-20h-264v264q13-8 21-16z m-265-91h303v-589q0-23-15-38t-38-16h-750q-23 0-38 16t-16 38v892q0 23 16 38t38 16h446v-304q0-22 16-38t38-15z m89-411v36q0 8-5 13t-13 5h-393q-8 0-13-5t-5-13v-36q0-8 5-13t13-5h393q8 0 13 5t5 13z m0 143v36q0 7-5 12t-13 5h-393q-8 0-13-5t-5-12v-36q0-8 5-13t13-5h393q8 0 13 5t5 13z m0 143v35q0 8-5 13t-13 5h-393q-8 0-13-5t-5-13v-35q0-8 5-13t13-5h393q8 0 13 5t5 13z" horiz-adv-x="857.1" />
<glyph glyph-name="link" unicode="&#xe841;" d="m812 171q0 23-15 38l-116 116q-16 16-38 16-24 0-40-18 1-1 10-10t12-12 9-11 7-14 2-15q0-23-16-38t-38-16q-8 0-15 2t-14 7-11 9-12 12-10 10q-19-17-19-40 0-23 16-38l115-116q15-15 38-15 22 0 38 15l82 81q15 16 15 37z m-392 394q0 22-15 38l-115 115q-16 16-38 16-22 0-38-15l-82-82q-16-15-16-37 0-22 16-38l116-116q15-15 38-15 23 0 40 17-2 2-11 11t-12 12-8 10-7 14-2 16q0 22 15 38t38 15q9 0 16-2t14-7 10-8 12-12 11-11q18 17 18 41z m500-394q0-67-48-113l-82-81q-46-47-113-47-68 0-114 48l-115 115q-46 47-46 114 0 68 49 116l-49 49q-48-49-116-49-67 0-114 47l-116 116q-47 47-47 114t47 113l82 82q47 46 114 46 67 0 114-47l114-116q47-46 47-113 0-69-49-117l49-49q48 49 116 49 67 0 114-47l116-116q47-47 47-114z" horiz-adv-x="928.6" />
<glyph glyph-name="picture" unicode="&#xe842;" d="m357 529q0-45-31-76t-76-32-76 32-31 76 31 75 76 32 76-32 31-75z m572-215v-250h-786v107l178 179 90-89 285 285z m53 393h-893q-7 0-12-5t-6-13v-678q0-8 6-13t12-5h893q7 0 13 5t5 13v678q0 7-5 13t-13 5z m89-18v-678q0-37-26-63t-63-27h-893q-36 0-63 27t-26 63v678q0 37 26 63t63 27h893q37 0 63-27t26-63z" horiz-adv-x="1071.4" />
<glyph glyph-name="video" unicode="&#xe843;" d="m214-43v72q0 14-10 25t-25 10h-72q-14 0-25-10t-11-25v-72q0-14 11-25t25-11h72q14 0 25 11t10 25z m0 214v72q0 14-10 25t-25 11h-72q-14 0-25-11t-11-25v-72q0-14 11-25t25-10h72q14 0 25 10t10 25z m0 215v71q0 15-10 25t-25 11h-72q-14 0-25-11t-11-25v-71q0-15 11-25t25-11h72q14 0 25 11t10 25z m572-429v286q0 14-11 25t-25 11h-429q-14 0-25-11t-10-25v-286q0-14 10-25t25-11h429q15 0 25 11t11 25z m-572 643v71q0 15-10 26t-25 10h-72q-14 0-25-10t-11-26v-71q0-15 11-25t25-11h72q14 0 25 11t10 25z m786-643v72q0 14-11 25t-25 10h-71q-15 0-25-10t-11-25v-72q0-14 11-25t25-11h71q15 0 25 11t11 25z m-214 429v285q0 15-11 26t-25 10h-429q-14 0-25-10t-10-26v-285q0-15 10-25t25-11h429q15 0 25 11t11 25z m214-215v72q0 14-11 25t-25 11h-71q-15 0-25-11t-11-25v-72q0-14 11-25t25-10h71q15 0 25 10t11 25z m0 215v71q0 15-11 25t-25 11h-71q-15 0-25-11t-11-25v-71q0-15 11-25t25-11h71q15 0 25 11t11 25z m0 214v71q0 15-11 26t-25 10h-71q-15 0-25-10t-11-26v-71q0-15 11-25t25-11h71q15 0 25 11t11 25z m71 89v-750q0-37-26-63t-63-26h-893q-36 0-63 26t-26 63v750q0 37 26 63t63 27h893q37 0 63-27t26-63z" horiz-adv-x="1071.4" />
<glyph glyph-name="quote" unicode="&#xe844;" d="m429 671v-392q0-58-23-111t-61-91-91-62-111-22h-36q-14 0-25 10t-11 26v71q0 15 11 25t25 11h36q59 0 101 42t42 101v17q0 23-16 38t-38 16h-125q-44 0-76 31t-31 76v214q0 45 31 76t76 32h214q45 0 76-32t32-76z m500 0v-392q0-58-23-111t-61-91-91-62-111-22h-36q-14 0-25 10t-11 26v71q0 15 11 25t25 11h36q59 0 101 42t42 101v17q0 23-16 38t-38 16h-125q-44 0-76 31t-31 76v214q0 45 31 76t76 32h214q45 0 76-32t32-76z" horiz-adv-x="928.6" />
</font>
</defs>
</svg>
